<svg version="1.1" viewBox="0.0 0.0 960.0 540.0" fill="none" stroke="none" stroke-linecap="square" stroke-miterlimit="10" xmlns:xlink="http://www.w3.org/1999/xlink" xmlns="http://www.w3.org/2000/svg"><clipPath id="g12ee391eb2f_0_0.0"><path d="m0 0l960.0 0l0 540.0l-960.0 0l0 -540.0z" clip-rule="nonzero"/></clipPath><g clip-path="url(#g12ee391eb2f_0_0.0)"><path fill="#000000" fill-opacity="0.0" d="m0 0l960.0 0l0 540.0l-960.0 0z" fill-rule="evenodd"/><path fill="#ffffff" d="m112.6273 132.04987l133.63779 0l0 75.90552l-133.63779 0z" fill-rule="evenodd"/><path stroke="#595959" stroke-width="1.0" stroke-linejoin="round" stroke-linecap="butt" d="m112.6273 132.04987l133.63779 0l0 75.90552l-133.63779 0z" fill-rule="evenodd"/><path fill="#000000" d="m180.2919 171.63637l-4.0 0l0 6.90625l-2.265625 0l0 -17.0625l5.65625 0q2.875 0 4.421875 1.3125q1.5625 1.3125 1.5625 3.8125q0 1.59375 -0.859375 2.78125q-0.859375 1.1875 -2.40625 1.765625l4.015625 7.25l0 0.140625l-2.421875 0l-3.703125 -6.90625zm-4.0 -1.84375l3.453125 0q1.671875 0 2.65625 -0.859375q1.0 -0.875 1.0 -2.328125q0 -1.578125 -0.953125 -2.421875q-0.9375 -0.84375 -2.71875 -0.859375l-3.4375 0l0 6.46875z" fill-rule="nonzero"/><path fill="#ffffff" d="m336.96588 44.04987l133.63779 0l0 75.90552l-133.63779 0z" fill-rule="evenodd"/><path stroke="#595959" stroke-width="1.0" stroke-linejoin="round" stroke-linecap="butt" d="m336.96588 44.04987l133.63779 0l0 75.90552l-133.63779 0z" fill-rule="evenodd"/><path fill="#000000" d="m370.6891 83.85512l0 6.6875l-2.25 0l0 -17.0625l6.296875 0q2.796875 0 4.375 1.4375q1.59375 1.421875 1.59375 3.78125q0 2.484375 -1.5625 3.828125q-1.546875 1.328125 -4.4375 1.328125l-4.015625 0zm0 -1.828125l4.046875 0q1.796875 0 2.75 -0.84375q0.96875 -0.859375 0.96875 -2.46875q0 -1.515625 -0.96875 -2.421875q-0.953125 -0.921875 -2.625 -0.96875l-4.171875 0l0 6.703125zm16.878906 5.34375l2.953125 -9.515625l2.3125 0l-5.09375 14.640625q-1.1875 3.171875 -3.765625 3.171875l-0.40625 -0.03125l-0.8125 -0.15625l0 -1.765625l0.59375 0.046875q1.09375 0 1.703125 -0.453125q0.625 -0.4375 1.015625 -1.609375l0.484375 -1.296875l-4.515625 -12.546875l2.359375 0l3.171875 9.515625zm10.136719 -12.578125l0 3.0625l2.375 0l0 1.6875l-2.375 0l0 7.859375q0 0.765625 0.3125 1.140625q0.328125 0.375 1.09375 0.375q0.375 0 1.03125 -0.140625l0 1.765625q-0.859375 0.234375 -1.671875 0.234375q-1.453125 0 -2.1875 -0.875q-0.734375 -0.890625 -0.734375 -2.5l0 -7.859375l-2.3125 0l0 -1.6875l2.3125 0l0 -3.0625l2.15625 0zm7.074188 4.609375q1.4375 -1.78125 3.75 -1.78125q4.015625 0 4.046875 4.546875l0 8.375l-2.15625 0l0 -8.390625q-0.015625 -1.375 -0.640625 -2.03125q-0.609375 -0.65625 -1.90625 -0.65625q-1.0625 0 -1.859375 0.5625q-0.796875 0.5625 -1.234375 1.484375l0 9.03125l-2.171875 0l0 -18.0l2.171875 0l0 6.859375zm10.46875 4.6875q0 -1.875 0.734375 -3.359375q0.734375 -1.484375 2.03125 -2.296875q1.3125 -0.8125 3.0 -0.8125q2.578125 0 4.171875 1.796875q1.609375 1.796875 1.609375 4.765625l0 0.15625q0 1.859375 -0.71875 3.328125q-0.703125 1.46875 -2.015625 2.296875q-1.3125 0.8125 -3.03125 0.8125q-2.578125 0 -4.1875 -1.796875q-1.59375 -1.796875 -1.59375 -4.75l0 -0.140625zm2.1875 0.25q0 2.109375 0.96875 3.390625q0.984375 1.28125 2.625 1.28125q1.65625 0 2.625 -1.296875q0.96875 -1.296875 0.96875 -3.625q0 -2.09375 -0.984375 -3.390625q-0.984375 -1.296875 -2.625 -1.296875q-1.609375 0 -2.59375 1.28125q-0.984375 1.28125 -0.984375 3.65625zm14.125 -6.484375l0.078125 1.59375q1.453125 -1.828125 3.796875 -1.828125q4.015625 0 4.046875 4.546875l0 8.375l-2.15625 0l0 -8.390625q-0.015625 -1.375 -0.640625 -2.03125q-0.609375 -0.65625 -1.90625 -0.65625q-1.0625 0 -1.859375 0.5625q-0.796875 0.5625 -1.234375 1.484375l0 9.03125l-2.171875 0l0 -12.6875l2.046875 0z" fill-rule="nonzero"/><path fill="#ffffff" d="m545.30444 100.049866l133.63782 0l0 75.90552l-133.63782 0z" fill-rule="evenodd"/><path stroke="#595959" stroke-width="1.0" stroke-linejoin="round" stroke-linecap="butt" d="m545.30444 100.049866l133.63782 0l0 75.90552l-133.63782 0z" fill-rule="evenodd"/><path fill="#000000" d="m568.9495 146.54262l0 -17.0625l4.8125 0q2.234375 0 3.9375 0.984375q1.71875 0.984375 2.640625 2.796875q0.9375 1.8125 0.953125 4.171875l0 1.09375q0 2.40625 -0.9375 4.234375q-0.9375 1.8125 -2.671875 2.78125q-1.71875 0.96875 -4.015625 1.0l-4.71875 0zm2.25 -15.21875l0 13.375l2.359375 0q2.609375 0 4.046875 -1.609375q1.453125 -1.625 1.453125 -4.609375l0 -1.0q0 -2.90625 -1.375 -4.515625q-1.359375 -1.609375 -3.859375 -1.640625l-2.625 0zm20.972656 13.96875q-1.265625 1.484375 -3.71875 1.484375q-2.015625 0 -3.078125 -1.171875q-1.0625 -1.1875 -1.078125 -3.5l0 -8.25l2.171875 0l0 8.203125q0 2.875 2.34375 2.875q2.484375 0 3.296875 -1.84375l0 -9.234375l2.171875 0l0 12.6875l-2.0625 0l-0.046875 -1.25zm10.496094 -0.28125q1.15625 0 2.015625 -0.703125q0.875 -0.703125 0.96875 -1.765625l2.046875 0q-0.0625 1.09375 -0.75 2.078125q-0.6875 0.984375 -1.84375 1.578125q-1.15625 0.578125 -2.4375 0.578125q-2.59375 0 -4.125 -1.71875q-1.53125 -1.734375 -1.53125 -4.734375l0 -0.375q0 -1.84375 0.671875 -3.28125q0.6875 -1.453125 1.953125 -2.25q1.28125 -0.796875 3.015625 -0.796875q2.125 0 3.53125 1.28125q1.421875 1.28125 1.515625 3.3125l-2.046875 0q-0.09375 -1.21875 -0.9375 -2.015625q-0.828125 -0.796875 -2.0625 -0.796875q-1.65625 0 -2.5625 1.203125q-0.90625 1.1875 -0.90625 3.4375l0 0.40625q0 2.1875 0.890625 3.375q0.90625 1.1875 2.59375 1.1875zm11.015625 -4.34375l-1.359375 1.421875l0 4.453125l-2.171875 0l0 -18.0l2.171875 0l0 10.890625l1.15625 -1.40625l3.953125 -4.171875l2.625 0l-4.921875 5.296875l5.5 7.390625l-2.546875 0l-4.40625 -5.875zm14.902344 5.875l0 -17.0625l4.8125 0q2.234375 0 3.9375 0.984375q1.71875 0.984375 2.640625 2.796875q0.9375 1.8125 0.953125 4.171875l0 1.09375q0 2.40625 -0.9375 4.234375q-0.9375 1.8125 -2.671875 2.78125q-1.71875 0.96875 -4.015625 1.0l-4.71875 0zm2.25 -15.21875l0 13.375l2.359375 0q2.609375 0 4.046875 -1.609375q1.453125 -1.625 1.453125 -4.609375l0 -1.0q0 -2.90625 -1.375 -4.515625q-1.359375 -1.609375 -3.859375 -1.640625l-2.625 0zm13.488281 15.21875l0 -17.0625l5.578125 0q2.78125 0 4.171875 1.15625q1.40625 1.140625 1.40625 3.390625q0 1.1875 -0.6875 2.109375q-0.671875 0.921875 -1.84375 1.421875q1.375 0.390625 2.171875 1.484375q0.8125 1.078125 0.8125 2.578125q0 2.296875 -1.484375 3.609375q-1.484375 1.3125 -4.203125 1.3125l-5.921875 0zm2.25 -7.984375l0 6.140625l3.71875 0q1.5625 0 2.46875 -0.8125q0.90625 -0.8125 0.90625 -2.25q0 -3.078125 -3.34375 -3.078125l-3.75 0zm0 -1.796875l3.390625 0q1.484375 0 2.359375 -0.734375q0.890625 -0.75 0.890625 -2.015625q0 -1.40625 -0.828125 -2.046875q-0.8125 -0.640625 -2.484375 -0.640625l-3.328125 0l0 5.4375z" fill-rule="nonzero"/><path fill="#ffffff" d="m88.6273 300.04987l133.63779 0l0 75.90552l-133.63779 0z" fill-rule="evenodd"/><path stroke="#595959" stroke-width="1.0" stroke-linejoin="round" stroke-linecap="butt" d="m88.6273 300.04987l133.63779 0l0 75.90552l-133.63779 0z" fill-rule="evenodd"/><path fill="#000000" d="m117.98526 339.85513l0 6.6875l-2.25 0l0 -17.0625l6.296875 0q2.796875 0 4.375 1.4375q1.59375 1.421875 1.59375 3.78125q0 2.484375 -1.5625 3.828125q-1.546875 1.328125 -4.4375 1.328125l-4.015625 0zm0 -1.828125l4.046875 0q1.796875 0 2.75 -0.84375q0.96875 -0.859375 0.96875 -2.46875q0 -1.515625 -0.96875 -2.421875q-0.953125 -0.921875 -2.625 -0.96875l-4.171875 0l0 6.703125zm20.246094 8.515625q-0.1875 -0.375 -0.296875 -1.34375q-1.515625 1.578125 -3.609375 1.578125q-1.875 0 -3.078125 -1.0625q-1.203125 -1.0625 -1.203125 -2.6875q0 -1.984375 1.5 -3.078125q1.515625 -1.09375 4.234375 -1.09375l2.109375 0l0 -1.0q0 -1.140625 -0.6875 -1.8125q-0.671875 -0.671875 -1.984375 -0.671875q-1.171875 0 -1.953125 0.59375q-0.78125 0.578125 -0.78125 1.40625l-2.1875 0q0 -0.9375 0.671875 -1.828125q0.6875 -0.890625 1.828125 -1.40625q1.15625 -0.515625 2.546875 -0.515625q2.1875 0 3.421875 1.109375q1.25 1.09375 1.296875 3.015625l0 5.828125q0 1.75 0.453125 2.78125l0 0.1875l-2.28125 0zm-3.59375 -1.65625q1.015625 0 1.921875 -0.515625q0.921875 -0.53125 1.328125 -1.375l0 -2.609375l-1.6875 0q-3.984375 0 -3.984375 2.328125q0 1.03125 0.671875 1.609375q0.6875 0.5625 1.75 0.5625zm14.9453125 -9.078125q-0.484375 -0.078125 -1.0625 -0.078125q-2.125 0 -2.890625 1.8125l0 9.0l-2.171875 0l0 -12.6875l2.109375 0l0.03125 1.46875q1.078125 -1.703125 3.03125 -1.703125q0.625 0 0.953125 0.171875l0 2.015625zm1.2421875 4.28125q0 -2.984375 1.375 -4.71875q1.375 -1.75 3.6875 -1.75q2.25 0 3.546875 1.515625l0.09375 -1.28125l1.984375 0l0 17.5625l-2.15625 0l0 -6.046875q-1.3125 1.40625 -3.5 1.40625q-2.296875 0 -3.671875 -1.78125q-1.359375 -1.796875 -1.359375 -4.75l0 -0.15625zm2.171875 0.25q0 2.1875 0.921875 3.4375q0.921875 1.234375 2.484375 1.234375q1.921875 0 2.953125 -1.71875l0 -6.203125q-1.03125 -1.6875 -2.9375 -1.6875q-1.5625 0 -2.5 1.25q-0.921875 1.25 -0.921875 3.6875zm19.828125 4.953125q-1.265625 1.484375 -3.71875 1.484375q-2.015625 0 -3.078125 -1.171875q-1.0625 -1.1875 -1.078125 -3.5l0 -8.25l2.171875 0l0 8.203125q0 2.875 2.34375 2.875q2.484375 0 3.296875 -1.84375l0 -9.234375l2.171875 0l0 12.6875l-2.0625 0l-0.046875 -1.25zm10.667969 1.484375q-2.578125 0 -4.203125 -1.6875q-1.609375 -1.703125 -1.609375 -4.53125l0 -0.40625q0 -1.890625 0.71875 -3.359375q0.71875 -1.484375 2.015625 -2.328125q1.296875 -0.84375 2.8125 -0.84375q2.46875 0 3.828125 1.640625q1.375 1.625 1.375 4.65625l0 0.90625l-8.578125 0q0.046875 1.875 1.09375 3.03125q1.046875 1.15625 2.65625 1.15625q1.15625 0 1.953125 -0.46875q0.796875 -0.46875 1.390625 -1.25l1.328125 1.03125q-1.59375 2.453125 -4.78125 2.453125zm-0.265625 -11.375q-1.3125 0 -2.203125 0.96875q-0.890625 0.953125 -1.109375 2.671875l6.359375 0l0 -0.171875q-0.09375 -1.640625 -0.890625 -2.546875q-0.796875 -0.921875 -2.15625 -0.921875zm10.652344 -4.609375l0 3.0625l2.375 0l0 1.6875l-2.375 0l0 7.859375q0 0.765625 0.3125 1.140625q0.328125 0.375 1.09375 0.375q0.375 0 1.03125 -0.140625l0 1.765625q-0.859375 0.234375 -1.671875 0.234375q-1.453125 0 -2.1875 -0.875q-0.734375 -0.890625 -0.734375 -2.5l0 -7.859375l-2.3125 0l0 -1.6875l2.3125 0l0 -3.0625l2.15625 0z" fill-rule="nonzero"/><path fill="#ffffff" d="m288.96588 396.04987l133.63779 0l0 75.90552l-133.63779 0z" fill-rule="evenodd"/><path stroke="#595959" stroke-width="1.0" stroke-linejoin="round" stroke-linecap="butt" d="m288.96588 396.04987l133.63779 0l0 75.90552l-133.63779 0z" fill-rule="evenodd"/><path fill="#000000" d="m347.7516 437.12076q-0.3125 2.71875 -2.0 4.1875q-1.671875 1.46875 -4.46875 1.46875q-3.015625 0 -4.84375 -2.171875q-1.828125 -2.171875 -1.828125 -5.796875l0 -1.640625q0 -2.375 0.84375 -4.171875q0.859375 -1.8125 2.421875 -2.78125q1.5625 -0.96875 3.609375 -0.96875q2.71875 0 4.359375 1.515625q1.640625 1.515625 1.90625 4.203125l-2.265625 0q-0.28125 -2.046875 -1.265625 -2.953125q-0.984375 -0.921875 -2.734375 -0.921875q-2.15625 0 -3.390625 1.59375q-1.21875 1.59375 -1.21875 4.546875l0 1.640625q0 2.78125 1.15625 4.421875q1.171875 1.640625 3.25 1.640625q1.875 0 2.875 -0.84375q1.0 -0.859375 1.328125 -2.96875l2.265625 0zm8.105438 -2.1875q-2.9062195 -0.828125 -4.2187195 -2.03125q-1.3125 -1.21875 -1.3125 -3.0q0 -2.015625 1.609375 -3.328125q1.6093445 -1.328125 4.1874695 -1.328125q1.75 0 3.125 0.6875q1.390625 0.671875 2.140625 1.875q0.75 1.1875 0.75 2.609375l-2.25 0q0 -1.546875 -0.984375 -2.4375q-0.984375 -0.890625 -2.78125 -0.890625q-1.671875 0 -2.609375 0.734375q-0.9218445 0.734375 -0.9218445 2.03125q0 1.046875 0.8749695 1.765625q0.890625 0.71875 3.015625 1.328125q2.140625 0.59375 3.328125 1.3125q1.203125 0.71875 1.78125 1.6875q0.59375 0.953125 0.59375 2.25q0 2.078125 -1.625 3.328125q-1.609375 1.25 -4.328125 1.25q-1.75 0 -3.2812195 -0.671875q-1.515625 -0.671875 -2.34375 -1.84375q-0.828125 -1.171875 -0.828125 -2.671875l2.265625 0q0 1.546875 1.1405945 2.453125q1.140625 0.890625 3.046875 0.890625q1.78125 0 2.734375 -0.71875q0.953125 -0.734375 0.953125 -1.984375q0 -1.25 -0.890625 -1.9375q-0.875 -0.6875 -3.171875 -1.359375zm14.847656 4.625l4.875 -14.078125l2.46875 0l-6.328125 17.0625l-2.0 0l-6.3125 -17.0625l2.453125 0l4.84375 14.078125z" fill-rule="nonzero"/><path fill="#ffffff" d="m505.30447 292.04987l133.63779 0l0 75.90552l-133.63779 0z" fill-rule="evenodd"/><path stroke="#595959" stroke-width="1.0" stroke-linejoin="round" stroke-linecap="butt" d="m505.30447 292.04987l133.63779 0l0 75.90552l-133.63779 0z" fill-rule="evenodd"/><path fill="#000000" d="m554.44366 338.777q-2.578125 0 -4.203125 -1.6875q-1.609375 -1.703125 -1.609375 -4.53125l0 -0.40625q0 -1.890625 0.71875 -3.359375q0.71875 -1.484375 2.015625 -2.328125q1.296875 -0.84375 2.8125 -0.84375q2.46875 0 3.828125 1.640625q1.375 1.625 1.375 4.65625l0 0.90625l-8.578125 0q0.046875 1.875 1.09375 3.03125q1.046875 1.15625 2.65625 1.15625q1.15625 0 1.953125 -0.46875q0.796875 -0.46875 1.390625 -1.25l1.328125 1.03125q-1.59375 2.453125 -4.78125 2.453125zm-0.265625 -11.375q-1.3125 0 -2.203125 0.96875q-0.890625 0.953125 -1.109375 2.671875l6.359375 0l0 -0.171875q-0.09375 -1.640625 -0.890625 -2.546875q-0.796875 -0.921875 -2.15625 -0.921875zm10.652344 -4.609375l0 3.0625l2.375 0l0 1.6875l-2.375 0l0 7.859375q0 0.765625 0.3125 1.140625q0.328125 0.375 1.09375 0.375q0.375 0 1.03125 -0.140625l0 1.765625q-0.859375 0.234375 -1.671875 0.234375q-1.453125 0 -2.1875 -0.875q-0.734375 -0.890625 -0.734375 -2.5l0 -7.859375l-2.3125 0l0 -1.6875l2.3125 0l0 -3.0625l2.15625 0zm9.996094 14.21875q1.15625 0 2.015625 -0.703125q0.875 -0.703125 0.96875 -1.765625l2.046875 0q-0.0625 1.09375 -0.75 2.078125q-0.6875 0.984375 -1.84375 1.578125q-1.15625 0.578125 -2.4375 0.578125q-2.59375 0 -4.125 -1.71875q-1.53125 -1.734375 -1.53125 -4.734375l0 -0.375q0 -1.84375 0.671875 -3.28125q0.6875 -1.453125 1.953125 -2.25q1.28125 -0.796875 3.015625 -0.796875q2.125 0 3.53125 1.28125q1.421875 1.28125 1.515625 3.3125l-2.046875 0q-0.09375 -1.21875 -0.9375 -2.015625q-0.828125 -0.796875 -2.0625 -0.796875q-1.65625 0 -2.5625 1.203125q-0.90625 1.1875 -0.90625 3.4375l0 0.40625q0 2.1875 0.890625 3.375q0.90625 1.1875 2.59375 1.1875zm7.5625 0.390625q0 -0.5625 0.328125 -0.9375q0.34375 -0.375 1.0 -0.375q0.671875 0 1.015625 0.375q0.359375 0.375 0.359375 0.9375q0 0.546875 -0.359375 0.90625q-0.34375 0.359375 -1.015625 0.359375q-0.65625 0 -1.0 -0.359375q-0.328125 -0.359375 -0.328125 -0.90625zm5.125 0q0 -0.5625 0.328125 -0.9375q0.34375 -0.375 1.0 -0.375q0.671875 0 1.015625 0.375q0.359375 0.375 0.359375 0.9375q0 0.546875 -0.359375 0.90625q-0.34375 0.359375 -1.015625 0.359375q-0.65625 0 -1.0 -0.359375q-0.328125 -0.359375 -0.328125 -0.90625zm4.859375 0q0 -0.5625 0.328125 -0.9375q0.34375 -0.375 1.0 -0.375q0.671875 0 1.015625 0.375q0.359375 0.375 0.359375 0.9375q0 0.546875 -0.359375 0.90625q-0.34375 0.359375 -1.015625 0.359375q-0.65625 0 -1.0 -0.359375q-0.328125 -0.359375 -0.328125 -0.90625z" fill-rule="nonzero"/><path fill="#000000" fill-opacity="0.0" d="m612.12335 100.049866c0 -9.023621 -70.75592 -18.047241 -141.51181 -18.047241" fill-rule="evenodd"/><path stroke="#ffffff" stroke-width="4.0" stroke-linejoin="round" stroke-linecap="butt" d="m598.6618 93.0777l-0.18927002 -0.04940796c-0.5093384 -0.13105011 -1.0313721 -0.26150513 -1.5657349 -0.39135742c-1.0688477 -0.25967407 -2.187378 -0.51688385 -3.3533936 -0.7713318c-2.3320923 -0.5089035 -4.854126 -1.0067825 -7.54895 -1.4914551c-5.3895874 -0.96932983 -11.470154 -1.8857956 -18.103516 -2.731758c-13.266724 -1.691925 -28.744629 -3.1018677 -45.328003 -4.088829c-8.291748 -0.49347687 -16.859833 -0.8812103 -25.566132 -1.1455765c-2.1765442 -0.066085815 -4.3617554 -0.12447357 -6.553467 -0.17486572c-1.0958557 -0.02519989 -2.1932983 -0.04839325 -3.2921143 -0.06956482l-1.3903198 -0.024177551" fill-rule="evenodd"/><path fill="#ffffff" stroke="#ffffff" stroke-width="4.0" stroke-linecap="butt" d="m610.3474 99.13006c-1.6713257 3.2269058 -5.64209 4.487961 -8.869019 2.8166504c-3.2268677 -1.671318 -4.487915 -5.642105 -2.8166504 -8.869011c1.6713257 -3.2269058 5.642151 -4.487961 8.869019 -2.8166504c3.2269287 1.671318 4.487976 5.642105 2.8166504 8.869011z" fill-rule="nonzero"/><path fill="#ffffff" stroke="#ffffff" stroke-width="4.0" stroke-linecap="butt" d="m472.61148 82.02067c0.03277588 -3.6338882 3.005188 -6.5531616 6.6390686 -6.520378c3.6338806 0.03278351 6.5531616 3.0052032 6.5203857 6.639084c-0.03277588 3.6338882 -3.0052185 6.5531616 -6.639099 6.520378c-3.6338806 -0.03278351 -6.5531616 -3.0052032 -6.520355 -6.639084z" fill-rule="nonzero"/><path fill="#000000" fill-opacity="0.0" d="m545.30444 138.00262c-74.760376 0 -112.14282 8.0 -149.52075 16.0c-37.37796 8.0 -74.751434 16.0 -149.50285 16.0" fill-rule="evenodd"/><path stroke="#ffffff" stroke-width="4.0" stroke-linejoin="round" stroke-linecap="butt" d="m530.1449 138.1189l-1.6958008 0.026397705c-1.0804443 0.01876831 -2.1524658 0.03933716 -3.2162476 0.061676025c-2.1275024 0.044677734 -4.221924 0.09643555 -6.284424 0.1550293c-8.2499695 0.234375 -15.988953 0.578125 -23.289825 1.015625c-14.601837 0.875 -27.451508 2.125 -39.132935 3.625c-23.362946 3.0 -42.05301 7.0 -60.742004 11.0c-18.688965 4.0 -37.37683 8.0 -60.73636 11.0c-11.679779 1.5 -24.527466 2.75 -39.127167 3.625c-7.2998657 0.4375 -15.03772 0.78125 -23.28659 1.015625c-2.0622253 0.05859375 -4.1564026 0.11035156 -6.2836304 0.1550293c-1.0635986 0.022338867 -2.135498 0.042907715 -3.2157898 0.061676025l-1.6937256 0.026382446" fill-rule="evenodd"/><path fill="#ffffff" stroke="#ffffff" stroke-width="4.0" stroke-linecap="butt" d="m543.3045 138.01796c0.027893066 3.6339264 -2.8953857 6.6024017 -6.529358 6.6302643c-3.6339111 0.027877808 -6.602356 -2.8954163 -6.630249 -6.5293427c-0.027832031 -3.6339264 2.8954468 -6.6024017 6.529358 -6.6302643c3.6339111 -0.027862549 6.602417 2.8954163 6.630249 6.5293427z" fill-rule="nonzero"/><path fill="#ffffff" stroke="#ffffff" stroke-width="4.0" stroke-linecap="butt" d="m248.28078 169.98729c-0.027877808 -3.6339264 2.8954163 -6.602417 6.5293427 -6.6302795c3.6339111 -0.027877808 6.6023865 2.895401 6.6302795 6.5293274c0.027862549 3.6339264 -2.8954163 6.6024017 -6.5293427 6.6302795c-3.6339264 0.027877808 -6.6024017 -2.895401 -6.6302795 -6.5293274z" fill-rule="nonzero"/><path fill="#000000" fill-opacity="0.0" d="m612.12335 175.95538c0 29.02362 -10.0 43.53543 -20.0 58.04724c-10.0 14.51181 -20.0 29.02362 -20.0 58.04724" fill-rule="evenodd"/><path stroke="#ffffff" stroke-width="4.0" stroke-linejoin="round" stroke-linecap="butt" d="m611.10004 191.08081l-0.13067627 0.88619995c-0.057006836 0.37072754 -0.1159668 0.7386322 -0.17687988 1.1037903c-0.12176514 0.7302704 -0.25115967 1.4494934 -0.38787842 2.158081c-1.09375 5.6686707 -2.65625 10.6571045 -4.53125 15.192047c-3.75 9.069885 -8.75 16.32579 -13.75 23.581696c-5.0 7.255905 -10.0 14.51181 -13.75 23.581696c-1.875 4.5349426 -3.4375 9.523376 -4.53125 15.192047c-0.13671875 0.70858765 -0.26611328 1.4277954 -0.38787842 2.158081c-0.060913086 0.36514282 -0.11987305 0.73306274 -0.17687988 1.1037903l-0.13067627 0.88619995" fill-rule="evenodd"/><path fill="#ffffff" stroke="#ffffff" stroke-width="4.0" stroke-linecap="butt" d="m611.98834 177.95082c3.6257324 0.2453003 6.36615 3.3834076 6.1208496 7.0091553c-0.2453003 3.6257477 -3.3834229 6.3661346 -7.0091553 6.120819c-3.6257935 -0.2453003 -6.36615 -3.3834076 -6.1208496 -7.0091553c0.2453003 -3.6257477 3.3834229 -6.3661346 7.0091553 -6.120819z" fill-rule="nonzero"/><path fill="#ffffff" stroke="#ffffff" stroke-width="4.0" stroke-linecap="butt" d="m572.25836 290.05444c-3.6257324 -0.24533081 -6.36615 -3.3834229 -6.1208496 -7.009186c0.24536133 -3.6257324 3.3834229 -6.3661194 7.0092163 -6.120819c3.6257324 0.24533081 6.366089 3.3834229 6.1207886 7.0091553c-0.2453003 3.625763 -3.3834229 6.36615 -7.0091553 6.1208496z" fill-rule="nonzero"/><path fill="#000000" fill-opacity="0.0" d="m179.4462 207.95538c0 23.02362 -6.0 34.53543 -12.0 46.04724c-6.0 11.51181 -12.0 23.02362 -12.0 46.04724" fill-rule="evenodd"/><path stroke="#ffffff" stroke-width="4.0" stroke-linejoin="round" stroke-linecap="butt" d="m178.43787 223.08182l-0.022918701 0.16268921c-0.65625 4.4967957 -1.59375 8.4539795 -2.71875 12.051422c-2.25 7.1948853 -5.25 12.95079 -8.25 18.706696c-3.0 5.7559204 -6.0 11.51181 -8.25 18.706696c-1.125 3.5974426 -2.0625 7.5546265 -2.71875 12.051422l-0.02293396 0.16268921" fill-rule="evenodd"/><path fill="#ffffff" stroke="#ffffff" stroke-width="4.0" stroke-linecap="butt" d="m179.31317 209.95096c3.6259918 0.24169922 6.3694916 3.3770905 6.127777 7.003067c-0.24169922 3.6259918 -3.3770905 6.3694916 -7.0030823 6.1277924c-3.6259766 -0.24171448 -6.3694763 -3.3771057 -6.127777 -7.0030823c0.24171448 -3.6259918 3.3770905 -6.3694916 7.0030823 -6.127777z" fill-rule="nonzero"/><path fill="#ffffff" stroke="#ffffff" stroke-width="4.0" stroke-linecap="butt" d="m155.57922 298.0543c-3.6259918 -0.24169922 -6.3694916 -3.3770752 -6.1277924 -7.0030823c0.24171448 -3.6259766 3.3770905 -6.3694763 7.0030823 -6.127777c3.6259918 0.24169922 6.3694916 3.3771057 6.127777 7.0030823c-0.24169922 3.6259766 -3.3770905 6.3694763 -7.003067 6.127777z" fill-rule="nonzero"/><path fill="#000000" fill-opacity="0.0" d="m403.7848 119.95538c0 69.02362 -12.0 103.53543 -24.0 138.04724c-12.0 34.51181 -24.0 69.02362 -24.0 138.04724" fill-rule="evenodd"/><path stroke="#ffffff" stroke-width="4.0" stroke-linejoin="round" stroke-linecap="butt" d="m403.58157 135.11401l-0.010803223 0.40330505c-0.028167725 0.9975281 -0.05899048 1.9872894 -0.09249878 2.9694214c-0.0670166 1.9642487 -0.14465332 3.8979492 -0.23254395 5.8021545c-0.3515625 7.616867 -0.8671875 14.761902 -1.5234375 21.502487c-1.3125 13.481171 -3.1875 25.344604 -5.4375 36.129547c-4.5 21.569885 -10.5 38.82579 -16.5 56.081696c-6.0 17.25592 -12.0 34.51181 -16.5 56.081696c-2.25 10.784943 -4.125 22.648376 -5.4375 36.129547c-0.65625 6.7406006 -1.171875 13.88562 -1.523468 21.502472c-0.087890625 1.9042358 -0.16552734 3.8379211 -0.23254395 5.802185c-0.0335083 0.9821472 -0.064331055 1.9718933 -0.09249878 2.9694214l-0.010803223 0.4032898" fill-rule="evenodd"/><path fill="#ffffff" stroke="#ffffff" stroke-width="4.0" stroke-linecap="butt" d="m403.75797 121.9552c3.6336975 0.048713684 6.539917 3.033905 6.491211 6.667618c-0.048706055 3.6336975 -3.033905 6.539917 -6.6676025 6.4911957c-3.633728 -0.048706055 -6.539917 -3.033905 -6.491211 -6.6676025c0.048706055 -3.6337128 3.033905 -6.5399246 6.6676025 -6.491211z" fill-rule="nonzero"/><path fill="#ffffff" stroke="#ffffff" stroke-width="4.0" stroke-linecap="butt" d="m355.81158 394.05005c-3.6336975 -0.048706055 -6.539917 -3.033905 -6.491211 -6.6676025c0.048706055 -3.633728 3.033905 -6.539917 6.6676025 -6.491211c3.633728 0.048706055 6.5399475 3.033905 6.491211 6.6676025c-0.048706055 3.6336975 -3.033905 6.539917 -6.6676025 6.491211z" fill-rule="nonzero"/><path fill="#000000" fill-opacity="0.0" d="m222.26509 338.00262c70.75954 0 106.13719 -2.0 141.51906 -4.0c35.381897 -2.0 70.768036 -4.0 141.53607 -4.0" fill-rule="evenodd"/><path stroke="#ffffff" stroke-width="4.0" stroke-linejoin="round" stroke-linecap="butt" d="m237.42505 337.96915l3.8374023 -0.017608643c2.013626 -0.011169434 3.9959564 -0.024108887 5.948059 -0.038757324c7.80838 -0.05859375 15.133026 -0.14453125 22.04303 -0.25390625c13.820068 -0.21875 25.981659 -0.53125 37.03769 -0.90625c22.112122 -0.75 39.802002 -1.75 57.49292 -2.75c17.690948 -1.0 35.382965 -2.0 57.49826 -2.75c11.057617 -0.375 23.221039 -0.6875 37.04309 -0.90625c6.9110413 -0.109375 14.236725 -0.1953125 22.046143 -0.25390625c1.9523315 -0.0146484375 3.934906 -0.02758789 5.948822 -0.038757324l3.8397522 -0.017608643" fill-rule="evenodd"/><path fill="#ffffff" stroke="#ffffff" stroke-width="4.0" stroke-linecap="butt" d="m224.26509 337.9982c-0.008026123 -3.6340027 2.931427 -6.586487 6.565445 -6.594513c3.634018 -0.008026123 6.586487 2.931427 6.594513 6.56546c0.008026123 3.6340027 -2.9314117 6.586487 -6.565445 6.594513c-3.634018 0.008026123 -6.586487 -2.931427 -6.594513 -6.56546z" fill-rule="nonzero"/><path fill="#ffffff" stroke="#ffffff" stroke-width="4.0" stroke-linecap="butt" d="m503.32022 330.00705c0.008026123 3.6340027 -2.931427 6.586487 -6.56546 6.594513c-3.6340332 0.008026123 -6.586487 -2.931427 -6.594513 -6.56546c-0.008026123 -3.6340332 2.931427 -6.586487 6.56546 -6.594513c3.6340027 -0.008026123 6.586487 2.931427 6.594513 6.56546z" fill-rule="nonzero"/><path fill="#000000" fill-opacity="0.0" d="m422.60367 434.00262c74.75592 0 149.51181 -33.02362 149.51181 -66.04724" fill-rule="evenodd"/><path stroke="#ffffff" stroke-width="4.0" stroke-linejoin="round" stroke-linecap="butt" d="m437.75714 433.5579l0.58935547 -0.033569336c0.58114624 -0.03503418 1.1619873 -0.071899414 1.7424622 -0.11065674c1.1609192 -0.07745361 2.320404 -0.16235352 3.4782104 -0.25457764c2.3155823 -0.18441772 4.624359 -0.3980713 6.9239807 -0.6399231c9.198486 -0.9674988 18.250946 -2.3865051 27.011383 -4.1924744c17.520935 -3.611969 33.87378 -8.771912 47.890533 -14.963837c14.016724 -6.191925 25.697327 -13.4158325 33.87372 -21.155762c2.0441284 -1.9349365 3.8692627 -3.9021912 5.4570312 -5.8936157c0.7939453 -0.995697 1.5285645 -1.9974365 2.201538 -3.0042725c0.16827393 -0.25167847 0.33270264 -0.5036621 0.4932251 -0.75601196l0.0960083 -0.15286255" fill-rule="evenodd"/><path fill="#ffffff" stroke="#ffffff" stroke-width="4.0" stroke-linecap="butt" d="m424.6028 433.94394c-0.1065979 -3.6324463 2.7516785 -6.663574 6.3841248 -6.770172c3.6324768 -0.10662842 6.6636047 2.751648 6.7702026 6.3841248c0.10662842 3.6324768 -2.751648 6.663574 -6.3841248 6.7702026c-3.6324768 0.1065979 -6.6636047 -2.7516785 -6.7702026 -6.3841553z" fill-rule="nonzero"/><path fill="#ffffff" stroke="#ffffff" stroke-width="4.0" stroke-linecap="butt" d="m571.5085 369.86105c3.4626465 1.1029053 5.3756104 4.8039856 4.272705 8.266632c-1.1029053 3.462616 -4.804016 5.3755493 -8.266663 4.272644c-3.4625854 -1.1028748 -5.3755493 -4.8039856 -4.272644 -8.266602c1.1029053 -3.4626465 4.804016 -5.37558 8.266602 -4.2726746z" fill-rule="nonzero"/><path fill="#000000" fill-opacity="0.0" d="m288.96588 434.00262c-66.755905 0 -133.51181 -29.02362 -133.51181 -58.04724" fill-rule="evenodd"/><path stroke="#ffffff" stroke-width="4.0" stroke-linejoin="round" stroke-linecap="butt" d="m273.81375 433.51392l-0.4619751 -0.028869629c-1.0366821 -0.06808472 -2.072113 -0.14273071 -3.1059875 -0.22375488c-2.0677795 -0.1621399 -4.1294556 -0.34988403 -6.183014 -0.5624695c-8.214081 -0.8503113 -16.297806 -2.097412 -24.120758 -3.6846313c-15.64592 -3.174469 -30.24878 -7.7094116 -42.765503 -13.151337c-12.516739 -5.441925 -22.947342 -11.7908325 -30.24878 -18.593262c-1.8253479 -1.7006226 -3.455124 -3.429535 -4.873047 -5.1797485c-0.35447693 -0.43753052 -0.6957092 -0.8764343 -1.0234528 -1.3164978c-0.0819397 -0.11004639 -0.1630249 -0.22015381 -0.24327087 -0.33032227l-0.16894531 -0.23461914" fill-rule="evenodd"/><path fill="#ffffff" stroke="#ffffff" stroke-width="4.0" stroke-linecap="butt" d="m286.96692 433.93814c-0.11715698 3.632141 -3.1565552 6.4816284 -6.7886963 6.3644714c-3.632141 -0.11715698 -6.4816284 -3.1565857 -6.3644714 -6.788727c0.11715698 -3.632141 3.1565857 -6.481598 6.788727 -6.364441c3.632141 0.11715698 6.481598 3.1565552 6.364441 6.7886963z" fill-rule="nonzero"/><path fill="#ffffff" stroke="#ffffff" stroke-width="4.0" stroke-linecap="butt" d="m156.13545 377.83572c3.416626 -1.2380981 7.190033 0.5279541 8.428131 3.94458c1.2380981 3.416626 -0.5279541 7.1900024 -3.9445648 8.428101c-3.416626 1.2380981 -7.1900177 -0.5279236 -8.428131 -3.9445496c-1.2380981 -3.416626 0.5279541 -7.190033 3.9445648 -8.428131z" fill-rule="nonzero"/><path fill="#000000" fill-opacity="0.0" d="m336.96588 82.002625c-78.75592 0 -157.51181 25.02362 -157.51181 50.04724" fill-rule="evenodd"/><path stroke="#ffffff" stroke-width="4.0" stroke-linejoin="round" stroke-linecap="butt" d="m321.80893 82.30654l-1.4282532 0.058525085c-0.61224365 0.026519775 -1.2241516 0.054473877 -1.8356628 0.08382416c-1.223053 0.05870819 -2.4446106 0.123039246 -3.6643372 0.19291687c-2.4394836 0.13974762 -4.871765 0.301651 -7.2944336 0.48492432c-9.690674 0.73311615 -19.22754 1.8083496 -28.456726 3.1768265c-18.458435 2.7369614 -35.68628 6.646904 -50.453003 11.338829c-14.766739 4.6919327 -27.072342 10.165848 -35.68628 16.030762c-2.153473 1.4662247 -4.076233 2.956894 -5.7490387 4.465889c-0.104522705 0.09429932 -0.20809937 0.18869019 -0.31071472 0.2831421l-0.2964325 0.27577972" fill-rule="evenodd"/><path fill="#ffffff" stroke="#ffffff" stroke-width="4.0" stroke-linecap="butt" d="m334.96628 82.04272c0.07284546 3.6333084 -2.813446 6.637741 -6.4467773 6.7105865c-3.6333008 0.07285309 -6.637726 -2.8134613 -6.7105713 -6.446762c-0.07284546 -3.6333084 2.813446 -6.637741 6.4467773 -6.7105865c3.6333008 -0.07285309 6.637726 2.8134613 6.7105713 6.446762z" fill-rule="nonzero"/><path fill="#ffffff" stroke="#ffffff" stroke-width="4.0" stroke-linecap="butt" d="m180.40129 130.2884c-3.2006073 -1.7211304 -4.3999634 -5.710991 -2.6788483 -8.911598c1.7211304 -3.200615 5.7109833 -4.3999786 8.911606 -2.6788483c3.2006073 1.7211227 4.3999634 5.7109833 2.6788483 8.911598c-1.7211304 3.2006073 -5.7109833 4.3999786 -8.911606 2.6788483z" fill-rule="nonzero"/><path fill="#000000" fill-opacity="0.0" d="m179.4462 207.95538c0 47.02362 44.08661 70.53543 88.17322 94.04724c44.08661 23.51181 88.17325 47.02362 88.17325 94.04724" fill-rule="evenodd"/><path stroke="#ffffff" stroke-width="4.0" stroke-linejoin="round" stroke-linecap="butt" d="m181.073 223.02785l0.11856079 0.52845764c0.07598877 0.32684326 0.15435791 0.65242004 0.23509216 0.9767456c1.2916107 5.1891174 3.1859436 10.056808 5.596924 14.648956c4.8219757 9.184296 11.71051 17.26648 19.97676 24.613922c16.53247 14.694885 38.575775 26.450775 60.61908 38.206696c22.043304 11.75592 44.08661 23.51181 60.61911 38.206696c8.266235 7.3474426 15.154755 15.429626 19.976746 24.613922c2.4109497 4.592163 4.3053284 9.459808 5.5969543 14.648956c0.08068848 0.3243103 0.15905762 0.64990234 0.23504639 0.9767456l0.11856079 0.5284729" fill-rule="evenodd"/><path fill="#ffffff" stroke="#ffffff" stroke-width="4.0" stroke-linecap="butt" d="m179.66081 209.94383c3.6130524 -0.38996887 6.858139 2.2228699 7.2480927 5.835907c0.38996887 3.6130524 -2.2228546 6.858139 -5.835907 7.248108c-3.6130524 0.3899536 -6.858139 -2.2228699 -7.2480927 -5.8359222c-0.38996887 -3.6130524 2.2228546 -6.858124 5.835907 -7.2480927z" fill-rule="nonzero"/><path fill="#ffffff" stroke="#ffffff" stroke-width="4.0" stroke-linecap="butt" d="m355.57803 394.06143c-3.613037 0.3899536 -6.858124 -2.2228699 -7.248108 -5.8359375c-0.3899536 -3.613037 2.2228699 -6.858124 5.8359375 -7.2480774c3.613037 -0.38998413 6.858124 2.2228394 7.2480774 5.835907c0.38998413 3.613037 -2.2228699 6.858124 -5.835907 7.248108z" fill-rule="nonzero"/><path fill="#000000" fill-opacity="0.0" d="m246.26509 170.00262c162.92912 0 325.85828 61.02362 325.85828 122.04724" fill-rule="evenodd"/><path stroke="#ffffff" stroke-width="4.0" stroke-linejoin="round" stroke-linecap="butt" d="m261.4241 170.17714l0.11062622 0.0024108887c5.086548 0.11730957 10.168152 0.29237366 15.239807 0.5233002c10.14328 0.46185303 20.246796 1.147171 30.270752 2.0410767c20.047943 1.787796 39.77762 4.409897 58.87088 7.7471313c38.186523 6.6744537 73.82727 16.209396 104.376495 27.651337c30.549194 11.441925 56.006897 24.790833 73.82727 39.093246c8.910156 7.1512146 15.911011 14.540787 20.684387 22.049545c1.1932983 1.8771973 2.2473755 3.7618408 3.1572876 5.652069c0.22747803 0.4725647 0.4459839 0.9454651 0.6553345 1.4187012c0.10467529 0.23660278 0.20709229 0.47329712 0.30725098 0.710083l0.06274414 0.15182495" fill-rule="evenodd"/><path fill="#ffffff" stroke="#ffffff" stroke-width="4.0" stroke-linecap="butt" d="m248.26495 170.02565c0.0418396 -3.633789 3.0215302 -6.5456543 6.655319 -6.5038147c3.6338043 0.0418396 6.545639 3.021515 6.5037994 6.655319c-0.041809082 3.633789 -3.021515 6.545639 -6.655304 6.5038147c-3.633789 -0.0418396 -6.545639 -3.0215302 -6.5038147 -6.655319z" fill-rule="nonzero"/><path fill="#ffffff" stroke="#ffffff" stroke-width="4.0" stroke-linecap="butt" d="m571.7096 290.09314c-3.55542 0.75183105 -7.047119 -1.5209045 -7.799011 -5.076294c-0.75183105 -3.55542 1.520935 -7.0471497 5.076355 -7.7989807c3.555359 -0.75183105 7.047119 1.5209045 7.79895 5.076294c0.75183105 3.55542 -1.520874 7.0471497 -5.076294 7.7989807z" fill-rule="nonzero"/><path fill="#000000" fill-opacity="0.0" d="m545.30444 138.00262c-80.759125 0 -121.14029 50.0 -161.51825 100.0c-40.37796 50.0 -80.752686 100.0 -161.50536 100.0" fill-rule="evenodd"/><path stroke="#ffffff" stroke-width="4.0" stroke-linejoin="round" stroke-linecap="butt" d="m530.1568 138.61496l-0.4187622 0.034500122c-0.29516602 0.02507019 -0.58984375 0.050857544 -0.8838501 0.07736206c-0.58813477 0.053009033 -1.1740112 0.10884094 -1.7575684 0.16748047c-1.1671143 0.11730957 -2.3251953 0.24586487 -3.4743042 0.3854828c-2.2982178 0.27923584 -4.560669 0.60272217 -6.7886353 0.9689331c-8.911957 1.4648438 -17.271881 3.6132812 -25.15857 6.3476562c-15.773407 5.46875 -29.654022 13.28125 -42.272766 22.65625c-25.237396 18.75 -45.427185 43.75 -65.61618 68.75c-20.188965 25.0 -40.377136 50.0 -65.61212 68.75c-12.617523 9.375 -26.496735 17.1875 -42.268616 22.65625c-7.8859253 2.734375 -16.245026 4.8828125 -25.156189 6.3476562c-2.2277832 0.36621094 -4.4900665 0.68969727 -6.788101 0.9689331c-1.1490021 0.13961792 -2.3069305 0.26818848 -3.4739685 0.38546753c-0.5835266 0.058654785 -1.1693115 0.11450195 -1.7573853 0.16748047c-0.29405212 0.026519775 -0.5886688 0.05230713 -0.88383484 0.07739258l-0.41749573 0.03439331" fill-rule="evenodd"/><path fill="#ffffff" stroke="#ffffff" stroke-width="4.0" stroke-linecap="butt" d="m543.3061 138.0834c0.14678955 3.631073 -2.6777954 6.693619 -6.308838 6.8404083c-3.6311035 0.14678955 -6.6936646 -2.6777954 -6.840393 -6.308853c-0.14678955 -3.631073 2.6777344 -6.693619 6.308838 -6.8404083c3.6310425 -0.14678955 6.6936035 2.6777954 6.840393 6.308853z" fill-rule="nonzero"/><path fill="#ffffff" stroke="#ffffff" stroke-width="4.0" stroke-linecap="butt" d="m224.2792 337.9218c-0.14680481 -3.6310425 2.6777496 -6.693634 6.3088074 -6.8404236c3.631073 -0.14682007 6.6936493 2.6777344 6.840454 6.3088074c0.14680481 3.631073 -2.6777496 6.693634 -6.3088074 6.840454c-3.631073 0.14678955 -6.6936493 -2.677765 -6.840454 -6.308838z" fill-rule="nonzero"/><path fill="#000000" fill-opacity="0.0" d="m612.12335 175.95538c0 55.02362 -64.08661 82.53543 -128.17322 110.04724c-64.08661 27.51181 -128.17322 55.02362 -128.17322 110.04724" fill-rule="evenodd"/><path stroke="#ffffff" stroke-width="4.0" stroke-linejoin="round" stroke-linecap="butt" d="m610.4184 191.0192l-0.068847656 0.2948761c-0.046569824 0.19499207 -0.093933105 0.3895874 -0.14221191 0.583786c-0.09649658 0.388443 -0.19659424 0.77534485 -0.30010986 1.1607819c-0.20703125 0.77085876 -0.42803955 1.5357208 -0.66278076 2.2947083c-1.8775024 6.071945 -4.6312866 11.767761 -8.135986 17.14116c-7.0094604 10.746796 -17.02301 20.20398 -29.039246 28.801422c-24.03247 17.194885 -56.075806 30.950775 -88.11908 44.706696c-32.043304 13.75592 -64.08661 27.51181 -88.11911 44.706696c-12.016235 8.597443 -22.029755 18.054626 -29.039246 28.801422c-3.5046997 5.373413 -6.258423 11.069214 -8.135986 17.141174c-0.2347107 0.75897217 -0.45568848 1.5238647 -0.66275024 2.2946777c-0.103515625 0.385437 -0.20358276 0.7723694 -0.30014038 1.1607666c-0.04824829 0.19424438 -0.09561157 0.38882446 -0.1421814 0.58380127l-0.068847656 0.29489136" fill-rule="evenodd"/><path fill="#ffffff" stroke="#ffffff" stroke-width="4.0" stroke-linecap="butt" d="m611.89844 177.94269c3.610962 0.40870667 6.206909 3.6672974 5.798218 7.2782745c-0.4086914 3.6109772 -3.6672974 6.2069397 -7.2782593 5.798233c-3.610962 -0.40870667 -6.20697 -3.6672974 -5.798218 -7.2782745c0.4086914 -3.6109772 3.6672974 -6.2069397 7.2782593 -5.798233z" fill-rule="nonzero"/><path fill="#ffffff" stroke="#ffffff" stroke-width="4.0" stroke-linecap="butt" d="m356.00183 394.06256c-3.610962 -0.40872192 -6.2069397 -3.6672974 -5.798218 -7.27829c0.4086914 -3.610962 3.6672974 -6.2069397 7.2782593 -5.798218c3.6109924 0.4086914 6.2069397 3.6672974 5.7982483 7.2782593c-0.40872192 3.6109924 -3.6672974 6.2069397 -7.27829 5.7982483z" fill-rule="nonzero"/></g></svg>