<svg version="1.1" viewBox="0.0 0.0 960.0 540.0" fill="none" stroke="none" stroke-linecap="square" stroke-miterlimit="10" xmlns:xlink="http://www.w3.org/1999/xlink" xmlns="http://www.w3.org/2000/svg"><clipPath id="g12ee391eb2f_0_28.0"><path d="m0 0l960.0 0l0 540.0l-960.0 0l0 -540.0z" clip-rule="nonzero"/></clipPath><g clip-path="url(#g12ee391eb2f_0_28.0)"><path fill="#000000" fill-opacity="0.0" d="m0 0l960.0 0l0 540.0l-960.0 0z" fill-rule="evenodd"/><path fill="#ffffff" d="m112.6273 132.04987l133.63779 0l0 75.90552l-133.63779 0z" fill-rule="evenodd"/><path stroke="#595959" stroke-width="1.0" stroke-linejoin="round" stroke-linecap="butt" d="m112.6273 132.04987l133.63779 0l0 75.90552l-133.63779 0z" fill-rule="evenodd"/><path fill="#000000" d="m180.2919 171.63637l-4.0 0l0 6.90625l-2.265625 0l0 -17.0625l5.65625 0q2.875 0 4.421875 1.3125q1.5625 1.3125 1.5625 3.8125q0 1.59375 -0.859375 2.78125q-0.859375 1.1875 -2.40625 1.765625l4.015625 7.25l0 0.140625l-2.421875 0l-3.703125 -6.90625zm-4.0 -1.84375l3.453125 0q1.671875 0 2.65625 -0.859375q1.0 -0.875 1.0 -2.328125q0 -1.578125 -0.953125 -2.421875q-0.9375 -0.84375 -2.71875 -0.859375l-3.4375 0l0 6.46875z" fill-rule="nonzero"/><path fill="#ffffff" d="m336.96588 44.04987l133.63779 0l0 75.90552l-133.63779 0z" fill-rule="evenodd"/><path stroke="#595959" stroke-width="1.0" stroke-linejoin="round" stroke-linecap="butt" d="m336.96588 44.04987l133.63779 0l0 75.90552l-133.63779 0z" fill-rule="evenodd"/><path fill="#000000" d="m370.6891 83.85512l0 6.6875l-2.25 0l0 -17.0625l6.296875 0q2.796875 0 4.375 1.4375q1.59375 1.421875 1.59375 3.78125q0 2.484375 -1.5625 3.828125q-1.546875 1.328125 -4.4375 1.328125l-4.015625 0zm0 -1.828125l4.046875 0q1.796875 0 2.75 -0.84375q0.96875 -0.859375 0.96875 -2.46875q0 -1.515625 -0.96875 -2.421875q-0.953125 -0.921875 -2.625 -0.96875l-4.171875 0l0 6.703125zm16.878906 5.34375l2.953125 -9.515625l2.3125 0l-5.09375 14.640625q-1.1875 3.171875 -3.765625 3.171875l-0.40625 -0.03125l-0.8125 -0.15625l0 -1.765625l0.59375 0.046875q1.09375 0 1.703125 -0.453125q0.625 -0.4375 1.015625 -1.609375l0.484375 -1.296875l-4.515625 -12.546875l2.359375 0l3.171875 9.515625zm10.136719 -12.578125l0 3.0625l2.375 0l0 1.6875l-2.375 0l0 7.859375q0 0.765625 0.3125 1.140625q0.328125 0.375 1.09375 0.375q0.375 0 1.03125 -0.140625l0 1.765625q-0.859375 0.234375 -1.671875 0.234375q-1.453125 0 -2.1875 -0.875q-0.734375 -0.890625 -0.734375 -2.5l0 -7.859375l-2.3125 0l0 -1.6875l2.3125 0l0 -3.0625l2.15625 0zm7.074188 4.609375q1.4375 -1.78125 3.75 -1.78125q4.015625 0 4.046875 4.546875l0 8.375l-2.15625 0l0 -8.390625q-0.015625 -1.375 -0.640625 -2.03125q-0.609375 -0.65625 -1.90625 -0.65625q-1.0625 0 -1.859375 0.5625q-0.796875 0.5625 -1.234375 1.484375l0 9.03125l-2.171875 0l0 -18.0l2.171875 0l0 6.859375zm10.46875 4.6875q0 -1.875 0.734375 -3.359375q0.734375 -1.484375 2.03125 -2.296875q1.3125 -0.8125 3.0 -0.8125q2.578125 0 4.171875 1.796875q1.609375 1.796875 1.609375 4.765625l0 0.15625q0 1.859375 -0.71875 3.328125q-0.703125 1.46875 -2.015625 2.296875q-1.3125 0.8125 -3.03125 0.8125q-2.578125 0 -4.1875 -1.796875q-1.59375 -1.796875 -1.59375 -4.75l0 -0.140625zm2.1875 0.25q0 2.109375 0.96875 3.390625q0.984375 1.28125 2.625 1.28125q1.65625 0 2.625 -1.296875q0.96875 -1.296875 0.96875 -3.625q0 -2.09375 -0.984375 -3.390625q-0.984375 -1.296875 -2.625 -1.296875q-1.609375 0 -2.59375 1.28125q-0.984375 1.28125 -0.984375 3.65625zm14.125 -6.484375l0.078125 1.59375q1.453125 -1.828125 3.796875 -1.828125q4.015625 0 4.046875 4.546875l0 8.375l-2.15625 0l0 -8.390625q-0.015625 -1.375 -0.640625 -2.03125q-0.609375 -0.65625 -1.90625 -0.65625q-1.0625 0 -1.859375 0.5625q-0.796875 0.5625 -1.234375 1.484375l0 9.03125l-2.171875 0l0 -12.6875l2.046875 0z" fill-rule="nonzero"/><path fill="#ffffff" d="m545.30444 100.049866l133.63782 0l0 75.90552l-133.63782 0z" fill-rule="evenodd"/><path stroke="#595959" stroke-width="1.0" stroke-linejoin="round" stroke-linecap="butt" d="m545.30444 100.049866l133.63782 0l0 75.90552l-133.63782 0z" fill-rule="evenodd"/><path fill="#000000" d="m568.9495 146.54262l0 -17.0625l4.8125 0q2.234375 0 3.9375 0.984375q1.71875 0.984375 2.640625 2.796875q0.9375 1.8125 0.953125 4.171875l0 1.09375q0 2.40625 -0.9375 4.234375q-0.9375 1.8125 -2.671875 2.78125q-1.71875 0.96875 -4.015625 1.0l-4.71875 0zm2.25 -15.21875l0 13.375l2.359375 0q2.609375 0 4.046875 -1.609375q1.453125 -1.625 1.453125 -4.609375l0 -1.0q0 -2.90625 -1.375 -4.515625q-1.359375 -1.609375 -3.859375 -1.640625l-2.625 0zm20.972656 13.96875q-1.265625 1.484375 -3.71875 1.484375q-2.015625 0 -3.078125 -1.171875q-1.0625 -1.1875 -1.078125 -3.5l0 -8.25l2.171875 0l0 8.203125q0 2.875 2.34375 2.875q2.484375 0 3.296875 -1.84375l0 -9.234375l2.171875 0l0 12.6875l-2.0625 0l-0.046875 -1.25zm10.496094 -0.28125q1.15625 0 2.015625 -0.703125q0.875 -0.703125 0.96875 -1.765625l2.046875 0q-0.0625 1.09375 -0.75 2.078125q-0.6875 0.984375 -1.84375 1.578125q-1.15625 0.578125 -2.4375 0.578125q-2.59375 0 -4.125 -1.71875q-1.53125 -1.734375 -1.53125 -4.734375l0 -0.375q0 -1.84375 0.671875 -3.28125q0.6875 -1.453125 1.953125 -2.25q1.28125 -0.796875 3.015625 -0.796875q2.125 0 3.53125 1.28125q1.421875 1.28125 1.515625 3.3125l-2.046875 0q-0.09375 -1.21875 -0.9375 -2.015625q-0.828125 -0.796875 -2.0625 -0.796875q-1.65625 0 -2.5625 1.203125q-0.90625 1.1875 -0.90625 3.4375l0 0.40625q0 2.1875 0.890625 3.375q0.90625 1.1875 2.59375 1.1875zm11.015625 -4.34375l-1.359375 1.421875l0 4.453125l-2.171875 0l0 -18.0l2.171875 0l0 10.890625l1.15625 -1.40625l3.953125 -4.171875l2.625 0l-4.921875 5.296875l5.5 7.390625l-2.546875 0l-4.40625 -5.875zm14.902344 5.875l0 -17.0625l4.8125 0q2.234375 0 3.9375 0.984375q1.71875 0.984375 2.640625 2.796875q0.9375 1.8125 0.953125 4.171875l0 1.09375q0 2.40625 -0.9375 4.234375q-0.9375 1.8125 -2.671875 2.78125q-1.71875 0.96875 -4.015625 1.0l-4.71875 0zm2.25 -15.21875l0 13.375l2.359375 0q2.609375 0 4.046875 -1.609375q1.453125 -1.625 1.453125 -4.609375l0 -1.0q0 -2.90625 -1.375 -4.515625q-1.359375 -1.609375 -3.859375 -1.640625l-2.625 0zm13.488281 15.21875l0 -17.0625l5.578125 0q2.78125 0 4.171875 1.15625q1.40625 1.140625 1.40625 3.390625q0 1.1875 -0.6875 2.109375q-0.671875 0.921875 -1.84375 1.421875q1.375 0.390625 2.171875 1.484375q0.8125 1.078125 0.8125 2.578125q0 2.296875 -1.484375 3.609375q-1.484375 1.3125 -4.203125 1.3125l-5.921875 0zm2.25 -7.984375l0 6.140625l3.71875 0q1.5625 0 2.46875 -0.8125q0.90625 -0.8125 0.90625 -2.25q0 -3.078125 -3.34375 -3.078125l-3.75 0zm0 -1.796875l3.390625 0q1.484375 0 2.359375 -0.734375q0.890625 -0.75 0.890625 -2.015625q0 -1.40625 -0.828125 -2.046875q-0.8125 -0.640625 -2.484375 -0.640625l-3.328125 0l0 5.4375z" fill-rule="nonzero"/><path fill="#ffffff" d="m88.6273 300.04987l133.63779 0l0 75.90552l-133.63779 0z" fill-rule="evenodd"/><path stroke="#595959" stroke-width="1.0" stroke-linejoin="round" stroke-linecap="butt" d="m88.6273 300.04987l133.63779 0l0 75.90552l-133.63779 0z" fill-rule="evenodd"/><path fill="#000000" d="m117.98526 339.85513l0 6.6875l-2.25 0l0 -17.0625l6.296875 0q2.796875 0 4.375 1.4375q1.59375 1.421875 1.59375 3.78125q0 2.484375 -1.5625 3.828125q-1.546875 1.328125 -4.4375 1.328125l-4.015625 0zm0 -1.828125l4.046875 0q1.796875 0 2.75 -0.84375q0.96875 -0.859375 0.96875 -2.46875q0 -1.515625 -0.96875 -2.421875q-0.953125 -0.921875 -2.625 -0.96875l-4.171875 0l0 6.703125zm20.246094 8.515625q-0.1875 -0.375 -0.296875 -1.34375q-1.515625 1.578125 -3.609375 1.578125q-1.875 0 -3.078125 -1.0625q-1.203125 -1.0625 -1.203125 -2.6875q0 -1.984375 1.5 -3.078125q1.515625 -1.09375 4.234375 -1.09375l2.109375 0l0 -1.0q0 -1.140625 -0.6875 -1.8125q-0.671875 -0.671875 -1.984375 -0.671875q-1.171875 0 -1.953125 0.59375q-0.78125 0.578125 -0.78125 1.40625l-2.1875 0q0 -0.9375 0.671875 -1.828125q0.6875 -0.890625 1.828125 -1.40625q1.15625 -0.515625 2.546875 -0.515625q2.1875 0 3.421875 1.109375q1.25 1.09375 1.296875 3.015625l0 5.828125q0 1.75 0.453125 2.78125l0 0.1875l-2.28125 0zm-3.59375 -1.65625q1.015625 0 1.921875 -0.515625q0.921875 -0.53125 1.328125 -1.375l0 -2.609375l-1.6875 0q-3.984375 0 -3.984375 2.328125q0 1.03125 0.671875 1.609375q0.6875 0.5625 1.75 0.5625zm14.9453125 -9.078125q-0.484375 -0.078125 -1.0625 -0.078125q-2.125 0 -2.890625 1.8125l0 9.0l-2.171875 0l0 -12.6875l2.109375 0l0.03125 1.46875q1.078125 -1.703125 3.03125 -1.703125q0.625 0 0.953125 0.171875l0 2.015625zm1.2421875 4.28125q0 -2.984375 1.375 -4.71875q1.375 -1.75 3.6875 -1.75q2.25 0 3.546875 1.515625l0.09375 -1.28125l1.984375 0l0 17.5625l-2.15625 0l0 -6.046875q-1.3125 1.40625 -3.5 1.40625q-2.296875 0 -3.671875 -1.78125q-1.359375 -1.796875 -1.359375 -4.75l0 -0.15625zm2.171875 0.25q0 2.1875 0.921875 3.4375q0.921875 1.234375 2.484375 1.234375q1.921875 0 2.953125 -1.71875l0 -6.203125q-1.03125 -1.6875 -2.9375 -1.6875q-1.5625 0 -2.5 1.25q-0.921875 1.25 -0.921875 3.6875zm19.828125 4.953125q-1.265625 1.484375 -3.71875 1.484375q-2.015625 0 -3.078125 -1.171875q-1.0625 -1.1875 -1.078125 -3.5l0 -8.25l2.171875 0l0 8.203125q0 2.875 2.34375 2.875q2.484375 0 3.296875 -1.84375l0 -9.234375l2.171875 0l0 12.6875l-2.0625 0l-0.046875 -1.25zm10.667969 1.484375q-2.578125 0 -4.203125 -1.6875q-1.609375 -1.703125 -1.609375 -4.53125l0 -0.40625q0 -1.890625 0.71875 -3.359375q0.71875 -1.484375 2.015625 -2.328125q1.296875 -0.84375 2.8125 -0.84375q2.46875 0 3.828125 1.640625q1.375 1.625 1.375 4.65625l0 0.90625l-8.578125 0q0.046875 1.875 1.09375 3.03125q1.046875 1.15625 2.65625 1.15625q1.15625 0 1.953125 -0.46875q0.796875 -0.46875 1.390625 -1.25l1.328125 1.03125q-1.59375 2.453125 -4.78125 2.453125zm-0.265625 -11.375q-1.3125 0 -2.203125 0.96875q-0.890625 0.953125 -1.109375 2.671875l6.359375 0l0 -0.171875q-0.09375 -1.640625 -0.890625 -2.546875q-0.796875 -0.921875 -2.15625 -0.921875zm10.652344 -4.609375l0 3.0625l2.375 0l0 1.6875l-2.375 0l0 7.859375q0 0.765625 0.3125 1.140625q0.328125 0.375 1.09375 0.375q0.375 0 1.03125 -0.140625l0 1.765625q-0.859375 0.234375 -1.671875 0.234375q-1.453125 0 -2.1875 -0.875q-0.734375 -0.890625 -0.734375 -2.5l0 -7.859375l-2.3125 0l0 -1.6875l2.3125 0l0 -3.0625l2.15625 0z" fill-rule="nonzero"/><path fill="#ffffff" d="m288.96588 396.04987l133.63779 0l0 75.90552l-133.63779 0z" fill-rule="evenodd"/><path stroke="#595959" stroke-width="1.0" stroke-linejoin="round" stroke-linecap="butt" d="m288.96588 396.04987l133.63779 0l0 75.90552l-133.63779 0z" fill-rule="evenodd"/><path fill="#000000" d="m347.7516 437.12076q-0.3125 2.71875 -2.0 4.1875q-1.671875 1.46875 -4.46875 1.46875q-3.015625 0 -4.84375 -2.171875q-1.828125 -2.171875 -1.828125 -5.796875l0 -1.640625q0 -2.375 0.84375 -4.171875q0.859375 -1.8125 2.421875 -2.78125q1.5625 -0.96875 3.609375 -0.96875q2.71875 0 4.359375 1.515625q1.640625 1.515625 1.90625 4.203125l-2.265625 0q-0.28125 -2.046875 -1.265625 -2.953125q-0.984375 -0.921875 -2.734375 -0.921875q-2.15625 0 -3.390625 1.59375q-1.21875 1.59375 -1.21875 4.546875l0 1.640625q0 2.78125 1.15625 4.421875q1.171875 1.640625 3.25 1.640625q1.875 0 2.875 -0.84375q1.0 -0.859375 1.328125 -2.96875l2.265625 0zm8.105438 -2.1875q-2.9062195 -0.828125 -4.2187195 -2.03125q-1.3125 -1.21875 -1.3125 -3.0q0 -2.015625 1.609375 -3.328125q1.6093445 -1.328125 4.1874695 -1.328125q1.75 0 3.125 0.6875q1.390625 0.671875 2.140625 1.875q0.75 1.1875 0.75 2.609375l-2.25 0q0 -1.546875 -0.984375 -2.4375q-0.984375 -0.890625 -2.78125 -0.890625q-1.671875 0 -2.609375 0.734375q-0.9218445 0.734375 -0.9218445 2.03125q0 1.046875 0.8749695 1.765625q0.890625 0.71875 3.015625 1.328125q2.140625 0.59375 3.328125 1.3125q1.203125 0.71875 1.78125 1.6875q0.59375 0.953125 0.59375 2.25q0 2.078125 -1.625 3.328125q-1.609375 1.25 -4.328125 1.25q-1.75 0 -3.2812195 -0.671875q-1.515625 -0.671875 -2.34375 -1.84375q-0.828125 -1.171875 -0.828125 -2.671875l2.265625 0q0 1.546875 1.1405945 2.453125q1.140625 0.890625 3.046875 0.890625q1.78125 0 2.734375 -0.71875q0.953125 -0.734375 0.953125 -1.984375q0 -1.25 -0.890625 -1.9375q-0.875 -0.6875 -3.171875 -1.359375zm14.847656 4.625l4.875 -14.078125l2.46875 0l-6.328125 17.0625l-2.0 0l-6.3125 -17.0625l2.453125 0l4.84375 14.078125z" fill-rule="nonzero"/><path fill="#ffffff" d="m505.30447 292.04987l133.63779 0l0 75.90552l-133.63779 0z" fill-rule="evenodd"/><path stroke="#595959" stroke-width="1.0" stroke-linejoin="round" stroke-linecap="butt" d="m505.30447 292.04987l133.63779 0l0 75.90552l-133.63779 0z" fill-rule="evenodd"/><path fill="#000000" d="m554.44366 338.777q-2.578125 0 -4.203125 -1.6875q-1.609375 -1.703125 -1.609375 -4.53125l0 -0.40625q0 -1.890625 0.71875 -3.359375q0.71875 -1.484375 2.015625 -2.328125q1.296875 -0.84375 2.8125 -0.84375q2.46875 0 3.828125 1.640625q1.375 1.625 1.375 4.65625l0 0.90625l-8.578125 0q0.046875 1.875 1.09375 3.03125q1.046875 1.15625 2.65625 1.15625q1.15625 0 1.953125 -0.46875q0.796875 -0.46875 1.390625 -1.25l1.328125 1.03125q-1.59375 2.453125 -4.78125 2.453125zm-0.265625 -11.375q-1.3125 0 -2.203125 0.96875q-0.890625 0.953125 -1.109375 2.671875l6.359375 0l0 -0.171875q-0.09375 -1.640625 -0.890625 -2.546875q-0.796875 -0.921875 -2.15625 -0.921875zm10.652344 -4.609375l0 3.0625l2.375 0l0 1.6875l-2.375 0l0 7.859375q0 0.765625 0.3125 1.140625q0.328125 0.375 1.09375 0.375q0.375 0 1.03125 -0.140625l0 1.765625q-0.859375 0.234375 -1.671875 0.234375q-1.453125 0 -2.1875 -0.875q-0.734375 -0.890625 -0.734375 -2.5l0 -7.859375l-2.3125 0l0 -1.6875l2.3125 0l0 -3.0625l2.15625 0zm9.996094 14.21875q1.15625 0 2.015625 -0.703125q0.875 -0.703125 0.96875 -1.765625l2.046875 0q-0.0625 1.09375 -0.75 2.078125q-0.6875 0.984375 -1.84375 1.578125q-1.15625 0.578125 -2.4375 0.578125q-2.59375 0 -4.125 -1.71875q-1.53125 -1.734375 -1.53125 -4.734375l0 -0.375q0 -1.84375 0.671875 -3.28125q0.6875 -1.453125 1.953125 -2.25q1.28125 -0.796875 3.015625 -0.796875q2.125 0 3.53125 1.28125q1.421875 1.28125 1.515625 3.3125l-2.046875 0q-0.09375 -1.21875 -0.9375 -2.015625q-0.828125 -0.796875 -2.0625 -0.796875q-1.65625 0 -2.5625 1.203125q-0.90625 1.1875 -0.90625 3.4375l0 0.40625q0 2.1875 0.890625 3.375q0.90625 1.1875 2.59375 1.1875zm7.5625 0.390625q0 -0.5625 0.328125 -0.9375q0.34375 -0.375 1.0 -0.375q0.671875 0 1.015625 0.375q0.359375 0.375 0.359375 0.9375q0 0.546875 -0.359375 0.90625q-0.34375 0.359375 -1.015625 0.359375q-0.65625 0 -1.0 -0.359375q-0.328125 -0.359375 -0.328125 -0.90625zm5.125 0q0 -0.5625 0.328125 -0.9375q0.34375 -0.375 1.0 -0.375q0.671875 0 1.015625 0.375q0.359375 0.375 0.359375 0.9375q0 0.546875 -0.359375 0.90625q-0.34375 0.359375 -1.015625 0.359375q-0.65625 0 -1.0 -0.359375q-0.328125 -0.359375 -0.328125 -0.90625zm4.859375 0q0 -0.5625 0.328125 -0.9375q0.34375 -0.375 1.0 -0.375q0.671875 0 1.015625 0.375q0.359375 0.375 0.359375 0.9375q0 0.546875 -0.359375 0.90625q-0.34375 0.359375 -1.015625 0.359375q-0.65625 0 -1.0 -0.359375q-0.328125 -0.359375 -0.328125 -0.90625z" fill-rule="nonzero"/><path fill="#000000" fill-opacity="0.0" d="m305.02887 250.0018c-20.690857 0 -31.035217 22.0 -41.381683 44.0c-10.346466 22.0 -20.694992 44.0 -41.38997 44.0" fill-rule="evenodd"/><path stroke="#ffffff" stroke-width="4.0" stroke-linejoin="round" stroke-linecap="butt" d="m290.48502 254.27982l-0.31991577 0.20689392c-0.12350464 0.0811615 -0.246521 0.16326904 -0.3690796 0.24635315c-0.4902954 0.33235168 -0.97335815 0.68011475 -1.4494324 1.0426788c-0.95217896 0.7250824 -1.8765869 1.5092621 -2.7757263 2.3471527c-1.7982788 1.6757812 -3.4955444 3.5664062 -5.111969 5.6289062c-6.4657593 8.25 -11.638489 19.25 -16.811707 30.25c-5.173218 11.0 -10.34697 22.0 -16.814285 30.25c-1.6168365 2.0625 -3.3145142 3.953125 -5.1132355 5.6289062c-0.899353 0.8378906 -1.8239899 1.6220703 -2.7763977 2.347168c-0.4762268 0.36254883 -0.95936584 0.71032715 -1.4497833 1.0426636c-0.12260437 0.083099365 -0.24565125 0.16519165 -0.3691864 0.24636841l-0.32269287 0.20861816" fill-rule="evenodd"/><path fill="#ffffff" stroke="#ffffff" stroke-width="4.0" stroke-linecap="butt" d="m303.11017 250.5662c1.0254822 3.4863281 -0.9694214 7.1438904 -4.45578 8.169373c-3.4863281 1.0255127 -7.1438904 -0.96939087 -8.169373 -4.4557495c-1.0255127 -3.4863281 0.96939087 -7.1438904 4.4557495 -8.169388c3.4863281 -1.0254974 7.1438904 0.9694214 8.169403 4.455765z" fill-rule="nonzero"/><path fill="#ffffff" stroke="#ffffff" stroke-width="4.0" stroke-linecap="butt" d="m224.17601 337.43765c-1.0250854 -3.4864502 0.9702759 -7.1437683 4.4567413 -8.168854c3.4864655 -1.0250549 7.1437836 0.9702759 8.168854 4.4567566c1.0250702 3.4864502 -0.97029114 7.1437683 -4.4567413 8.168854c-3.4864655 1.0250549 -7.1437836 -0.9702759 -8.168854 -4.4567566z" fill-rule="nonzero"/><path fill="#000000" fill-opacity="0.0" d="m334.52493 308.9939c0 21.763794 5.314972 32.64566 10.629913 43.527557c5.314972 10.881897 10.629944 21.763794 10.629944 43.527557" fill-rule="evenodd"/><path stroke="#ffffff" stroke-width="4.0" stroke-linejoin="round" stroke-linecap="butt" d="m335.53378 324.12027l0.016571045 0.1171875c0.038238525 0.26174927 0.07745361 0.5215149 0.117614746 0.7793884c0.08026123 0.5157471 0.16430664 1.0238342 0.25186157 1.5246277c0.17520142 1.0015564 0.36462402 1.973938 0.56707764 2.9197388c0.4048462 1.891571 0.8616028 3.67688 1.3598633 5.3771667c1.9931335 6.801178 4.6506042 12.242126 7.308075 17.683075c2.6575012 5.4409485 5.314972 10.881897 7.308075 17.683075c0.49829102 1.7002869 0.9550476 3.4855957 1.3598633 5.3771667c0.2024231 0.94577026 0.39190674 1.9181519 0.5670471 2.9197388c0.08761597 0.50079346 0.17163086 1.0089111 0.25195312 1.5245972c0.040100098 0.25787354 0.0793457 0.51763916 0.11755371 0.7793884l0.01663208 0.1171875" fill-rule="evenodd"/><path fill="#ffffff" stroke="#ffffff" stroke-width="4.0" stroke-linecap="butt" d="m334.65802 310.98947c3.6259766 -0.2418518 6.7614746 2.5015564 7.003296 6.127533c0.24182129 3.6259766 -2.501587 6.761444 -6.1275635 7.0032654c-3.6259766 0.2418518 -6.761444 -2.5015564 -7.0032654 -6.127533c-0.24182129 -3.6259766 2.5015564 -6.761444 6.127533 -7.0032654z" fill-rule="nonzero"/><path fill="#ffffff" stroke="#ffffff" stroke-width="4.0" stroke-linecap="butt" d="m355.65167 394.05344c-3.6259766 0.24182129 -6.761444 -2.5015564 -7.0032654 -6.127533c-0.24182129 -3.6259766 2.5015564 -6.7614746 6.127533 -7.003296c3.6259766 -0.24182129 6.7614746 2.5015564 7.003296 6.1275635c0.24182129 3.6259766 -2.501587 6.761444 -6.1275635 7.0032654z" fill-rule="nonzero"/><path fill="#000000" fill-opacity="0.0" d="m417.04462 308.9939c0 10.503937 44.125977 21.007874 88.25198 21.007874" fill-rule="evenodd"/><path stroke="#ffffff" stroke-width="4.0" stroke-linejoin="round" stroke-linecap="butt" d="m428.78506 318.5849l0.39141846 0.15740967c0.1854248 0.07366943 0.3727417 0.14709473 0.56185913 0.2203064c0.37826538 0.14645386 0.7637024 0.29208374 1.15625 0.4367981c0.7850647 0.28945923 1.5984497 0.57540894 2.4387512 0.8574829c3.3611145 1.1283569 7.1531982 2.19516 11.290009 3.1799011c8.273621 1.9694824 17.926178 3.6107483 28.268219 4.759613c5.1710205 0.5744324 10.514404 1.0257568 15.94397 1.3334961l1.3063965 0.06954956" fill-rule="evenodd"/><path fill="#ffffff" stroke="#ffffff" stroke-width="4.0" stroke-linecap="butt" d="m418.59348 310.2592c2.2991028 -2.8143005 6.444336 -3.2319946 9.258667 -0.93292236c2.8143005 2.2991028 3.2319946 6.444336 0.93292236 9.258667c-2.2991028 2.8143005 -6.444336 3.2319946 -9.258667 0.93292236c-2.8143005 -2.2991028 -3.2319946 -6.444336 -0.93292236 -9.258667z" fill-rule="nonzero"/><path fill="#ffffff" stroke="#ffffff" stroke-width="4.0" stroke-linecap="butt" d="m503.2973 329.9487c-0.09643555 3.6327515 -3.1195374 6.4995117 -6.752289 6.403076c-3.6327515 -0.09643555 -6.4995117 -3.1195374 -6.403076 -6.752289c0.09643555 -3.632782 3.1195374 -6.4995117 6.752289 -6.403076c3.6327515 0.09643555 6.4995117 3.1195374 6.403076 6.752289z" fill-rule="nonzero"/><path fill="#000000" fill-opacity="0.0" d="m403.7848 119.95538c0 17.763428 3.3149414 26.644958 6.6299133 35.52684c3.3149414 8.881897 6.6299133 17.764145 6.6299133 35.528275" fill-rule="evenodd"/><path stroke="#ffffff" stroke-width="4.0" stroke-linejoin="round" stroke-linecap="butt" d="m404.76697 135.08353l0.058288574 0.4026184c0.05895996 0.39707947 0.12008667 0.7884674 0.18319702 1.1744385c0.25253296 1.5438843 0.53738403 3.0010376 0.84817505 4.388794c1.243103 5.551056 2.9006042 9.991913 4.558075 14.432861c1.6574707 4.440933 3.3149414 8.881973 4.558075 14.433289c0.3107605 1.3878326 0.5956421 2.845047 0.84817505 4.389023c0.06311035 0.38598633 0.12420654 0.7773895 0.18319702 1.1744995l0.058380127 0.4032898" fill-rule="evenodd"/><path fill="#ffffff" stroke="#ffffff" stroke-width="4.0" stroke-linecap="butt" d="m403.91437 121.95118c3.6263733 -0.23544312 6.757019 2.5134735 6.992462 6.1398697c0.23544312 3.6264038 -2.5134583 6.7570343 -6.139862 6.9924774c-3.6264038 0.23544312 -6.7570496 -2.5134735 -6.9924927 -6.139862c-0.23544312 -3.6264038 2.5134888 -6.757042 6.1398926 -6.992485z" fill-rule="nonzero"/><path fill="#ffffff" stroke="#ffffff" stroke-width="4.0" stroke-linecap="butt" d="m416.91507 189.0147c-3.6264038 0.23542786 -6.7570496 -2.513504 -6.992462 -6.139908c-0.2354126 -3.6264038 2.5135193 -6.757019 6.139923 -6.992447c3.6264038 -0.2354126 6.757019 2.5135193 6.9924316 6.139923c0.23544312 3.6264038 -2.5135193 6.757019 -6.1398926 6.9924316z" fill-rule="nonzero"/><path fill="#000000" fill-opacity="0.0" d="m246.26509 170.00262c44.12599 0 88.25197 10.503937 88.25197 21.007874" fill-rule="evenodd"/><path stroke="#ffffff" stroke-width="4.0" stroke-linejoin="round" stroke-linecap="butt" d="m261.41974 170.40492l1.306427 0.06956482c5.4295654 0.307724 10.772919 0.7590637 15.943939 1.3334961c10.342041 1.14888 19.994598 2.7901154 28.268219 4.759598c4.1368103 0.9847412 7.928894 2.0515594 11.290039 3.1799164c0.8403015 0.28207397 1.653656 0.5680237 2.4387207 0.85746765c0.3925476 0.14472961 0.77801514 0.2903595 1.15625 0.4367981c0.18911743 0.07322693 0.37643433 0.14665222 0.56188965 0.22032166l0.39141846 0.15739441" fill-rule="evenodd"/><path fill="#ffffff" stroke="#ffffff" stroke-width="4.0" stroke-linecap="butt" d="m248.26439 170.0557c0.09643555 -3.6327515 3.1195374 -6.4995117 6.752289 -6.403076c3.6327667 0.09643555 6.4994965 3.1195374 6.403061 6.752304c-0.09640503 3.6327515 -3.1195374 6.4994965 -6.7522736 6.403061c-3.6327515 -0.09643555 -6.4995117 -3.1195374 -6.403076 -6.752289z" fill-rule="nonzero"/><path fill="#ffffff" stroke="#ffffff" stroke-width="4.0" stroke-linecap="butt" d="m332.9682 189.7452c-2.2991028 2.8143158 -6.444336 3.2319946 -9.258667 0.93292236c-2.8143005 -2.2990875 -3.2319946 -6.4443207 -0.93289185 -9.258652c2.2990723 -2.8143158 6.4443054 -3.2319946 9.258636 -0.93292236c2.814331 2.2990875 3.2319946 6.4443207 0.93292236 9.258652z" fill-rule="nonzero"/><path fill="#000000" fill-opacity="0.0" d="m612.12335 175.95538c0 37.02362 -82.787415 74.04724 -165.5748 74.04724" fill-rule="evenodd"/><path stroke="#ffffff" stroke-width="4.0" stroke-linejoin="round" stroke-linecap="butt" d="m607.9818 190.5387l-0.045410156 0.08154297c-0.16040039 0.28414917 -0.3251953 0.56799316 -0.4942627 0.851532c-0.33825684 0.5670471 -0.69384766 1.1328278 -1.0664673 1.6971893c-0.7453613 1.1287537 -1.5588379 2.2518463 -2.4381104 3.3681488c-1.7583618 2.2326355 -3.779602 4.438141 -6.043274 6.607498c-9.054871 8.677414 -21.990417 16.776321 -37.51306 23.718246c-15.522644 6.9419403 -33.632385 12.726883 -53.035675 16.776337c-9.70163 2.0247345 -19.726715 3.6155853 -29.913422 4.7002563c-5.0933533 0.54234314 -10.227173 0.95814514 -15.381165 1.2383423l-0.34786987 0.01776123" fill-rule="evenodd"/><path fill="#ffffff" stroke="#ffffff" stroke-width="4.0" stroke-linecap="butt" d="m611.57697 177.8793c3.4957886 0.9927826 5.5249023 4.6315002 4.5321045 8.127289c-0.99279785 3.4957886 -4.6314697 5.524887 -8.127258 4.5321045c-3.4958496 -0.9927826 -5.5249023 -4.6315002 -4.5321045 -8.127289c0.9927368 -3.4958038 4.6314697 -5.524887 8.127258 -4.5321045z" fill-rule="nonzero"/><path fill="#ffffff" stroke="#ffffff" stroke-width="4.0" stroke-linecap="butt" d="m448.54782 249.94891c-0.0975647 -3.632721 2.768219 -6.656723 6.4009705 -6.754303c3.632721 -0.097579956 6.656708 2.768219 6.754303 6.40094c0.0975647 3.632721 -2.768219 6.6567383 -6.40094 6.754303c-3.632721 0.097595215 -6.6567383 -2.7682037 -6.7543335 -6.40094z" fill-rule="nonzero"/><path fill="#eeeeee" d="m305.02887 250.0018l29.496063 -58.992096l82.519684 0l29.496063 58.992096l-29.496063 58.992096l-82.519684 0z" fill-rule="evenodd"/><path stroke="#595959" stroke-width="1.0" stroke-linejoin="round" stroke-linecap="butt" d="m305.02887 250.0018l29.496063 -58.992096l82.519684 0l29.496063 58.992096l-29.496063 58.992096l-82.519684 0z" fill-rule="evenodd"/><path fill="#000000" d="m352.3887 255.69554l-6.84375 0l-1.296875 3.9062653l-4.15625 0l7.046875 -18.95314l3.625 0l7.09375 18.95314l-4.15625 0l-1.3125 -3.9062653zm-5.796875 -3.15625l4.75 0l-2.390625 -7.09375l-2.359375 7.09375zm20.701324 -3.5q-0.765625 -0.09375 -1.359375 -0.09375q-2.125 0 -2.796875 1.4375l0 9.218765l-3.765625 0l0 -14.07814l3.5625 0l0.109375 1.671875q1.125 -1.9375 3.125 -1.9375q0.625 0 1.171875 0.171875l-0.046875 3.609375zm9.722748 0q-0.765625 -0.09375 -1.359375 -0.09375q-2.125 0 -2.796875 1.4375l0 9.218765l-3.765625 0l0 -14.07814l3.5625 0l0.109375 1.671875q1.125 -1.9375 3.125 -1.9375q0.625 0 1.171875 0.171875l-0.046875 3.609375zm0.7540283 3.390625q0 -2.09375 0.796875 -3.734375q0.8125 -1.640625 2.328125 -2.53125q1.515625 -0.90625 3.53125 -0.90625q2.84375 0 4.640625 1.75q1.8125 1.734375 2.015625 4.734375l0.03125 0.96875q0 3.234375 -1.8125 5.2031403q-1.8125 1.953125 -4.859375 1.953125q-3.046875 0 -4.859375 -1.953125q-1.8125 -1.9531403 -1.8125 -5.3125153l0 -0.171875zm3.765625 0.28125q0 2.0 0.75 3.0625q0.75 1.0625153 2.15625 1.0625153q1.375 0 2.140625 -1.0468903q0.765625 -1.0625 0.765625 -3.359375q0 -1.96875 -0.765625 -3.046875q-0.765625 -1.078125 -2.15625 -1.078125q-1.390625 0 -2.140625 1.078125q-0.75 1.0625 -0.75 3.328125zm24.134735 1.78125l1.859375 -8.96875l3.625 0l-3.59375 14.07814l-3.140625 0l-2.671875 -8.85939l-2.671875 8.85939l-3.140625 0l-3.59375 -14.07814l3.640625 0l1.828125 8.953125l2.578125 -8.953125l2.71875 0l2.5625 8.96875z" fill-rule="nonzero"/></g></svg>